<svg width="1700.0" height="1700.0" xmlns="http://www.w3.org/2000/svg"><rect width="100" height="100" x="0.0" y="0.0" fill="#956b2c" /><rect width="100" height="100" x="100.0" y="0.0" fill="#8a6528" /><rect width="100" height="100" x="200.0" y="0.0" fill="#956b2c" /><rect width="100" height="100" x="300.0" y="0.0" fill="#9c7332" /><rect width="100" height="100" x="400.0" y="0.0" fill="#9c7332" /><rect width="100" height="100" x="500.0" y="0.0" fill="#9c7332" /><rect width="100" height="100" x="600.0" y="0.0" fill="#9c7332" /><rect width="100" height="100" x="700.0" y="0.0" fill="#9c7332" /><rect width="100" height="100" x="800.0" y="0.0" fill="#956b2c" /><rect width="100" height="100" x="900.0" y="0.0" fill="#9c7332" /><rect width="100" height="100" x="1000.0" y="0.0" fill="#9c7332" /><rect width="100" height="100" x="1100.0" y="0.0" fill="#9c7332" /><rect width="100" height="100" x="1200.0" y="0.0" fill="#9c7332" /><rect width="100" height="100" x="1300.0" y="0.0" fill="#9c7332" /><rect width="100" height="100" x="1400.0" y="0.0" fill="#956b2c" /><rect width="100" height="100" x="1500.0" y="0.0" fill="#7a5722" /><rect width="100" height="100" x="0.0" y="100.0" fill="#956b2c" /><rect width="100" height="100" x="100.0" y="100.0" fill="#956b2c" /><rect width="100" height="100" x="200.0" y="100.0" fill="#8a6528" /><rect width="100" height="100" x="300.0" y="100.0" fill="#8a6528" /><rect width="100" height="100" x="400.0" y="100.0" fill="#7a5722" /><rect width="100" height="100" x="500.0" y="100.0" fill="#805d26" /><rect width="100" height="100" x="600.0" y="100.0" fill="#8a6528" /><rect width="100" height="100" x="700.0" y="100.0" fill="#956b2c" /><rect width="100" height="100" x="800.0" y="100.0" fill="#956b2c" /><rect width="100" height="100" x="900.0" y="100.0" fill="#956b2c" /><rect width="100" height="100" x="1000.0" y="100.0" fill="#8a6528" /><rect width="100" height="100" x="1100.0" y="100.0" fill="#8a6528" /><rect width="100" height="100" x="1200.0" y="100.0" fill="#956b2c" /><rect width="100" height="100" x="1300.0" y="100.0" fill="#956b2c" /><rect width="100" height="100" x="1400.0" y="100.0" fill="#805d26" /><rect width="100" height="100" x="1500.0" y="100.0" fill="#805d26" /><rect width="100" height="100" x="0.0" y="200.0" fill="#8a6528" /><rect width="100" height="100" x="100.0" y="200.0" fill="#956b2c" /><rect width="100" height="100" x="200.0" y="200.0" fill="#956b2c" /><rect width="100" height="100" x="300.0" y="200.0" fill="#956b2c" /><rect width="100" height="100" x="400.0" y="200.0" fill="#8a6528" /><rect width="100" height="100" x="500.0" y="200.0" fill="#956b2c" /><rect width="100" height="100" x="600.0" y="200.0" fill="#8a6528" /><rect width="100" height="100" x="700.0" y="200.0" fill="#805d26" /><rect width="100" height="100" x="800.0" y="200.0" fill="#805d26" /><rect width="100" height="100" x="900.0" y="200.0" fill="#805d26" /><rect width="100" height="100" x="1000.0" y="200.0" fill="#805d26" /><rect width="100" height="100" x="1100.0" y="200.0" fill="#8a6528" /><rect width="100" height="100" x="1200.0" y="200.0" fill="#8a6528" /><rect width="100" height="100" x="1300.0" y="200.0" fill="#956b2c" /><rect width="100" height="100" x="1400.0" y="200.0" fill="#956b2c" /><rect width="100" height="100" x="1500.0" y="200.0" fill="#7a5722" /><rect width="100" height="100" x="0.0" y="300.0" fill="#7a5722" /><rect width="100" height="100" x="100.0" y="300.0" fill="#725222" /><rect width="100" height="100" x="200.0" y="300.0" fill="#725222" /><rect width="100" height="100" x="300.0" y="300.0" fill="#7a5722" /><rect width="100" height="100" x="400.0" y="300.0" fill="#7a5722" /><rect width="100" height="100" x="500.0" y="300.0" fill="#725222" /><rect width="100" height="100" x="600.0" y="300.0" fill="#6d4d20" /><rect width="100" height="100" x="700.0" y="300.0" fill="#6d4d20" /><rect width="100" height="100" x="800.0" y="300.0" fill="#725222" /><rect width="100" height="100" x="900.0" y="300.0" fill="#725222" /><rect width="100" height="100" x="1000.0" y="300.0" fill="#6d4d20" /><rect width="100" height="100" x="1100.0" y="300.0" fill="#725222" /><rect width="100" height="100" x="1200.0" y="300.0" fill="#6d4d20" /><rect width="100" height="100" x="1300.0" y="300.0" fill="#6d4d20" /><rect width="100" height="100" x="1400.0" y="300.0" fill="#725222" /><rect width="100" height="100" x="1500.0" y="300.0" fill="#6d4d20" /><rect width="100" height="100" x="0.0" y="400.0" fill="#956b2c" /><rect width="100" height="100" x="100.0" y="400.0" fill="#9c7332" /><rect width="100" height="100" x="200.0" y="400.0" fill="#805d26" /><rect width="100" height="100" x="300.0" y="400.0" fill="#9c7332" /><rect width="100" height="100" x="400.0" y="400.0" fill="#9c7332" /><rect width="100" height="100" x="500.0" y="400.0" fill="#9c7332" /><rect width="100" height="100" x="600.0" y="400.0" fill="#9c7332" /><rect width="100" height="100" x="700.0" y="400.0" fill="#805d26" /><rect width="100" height="100" x="800.0" y="400.0" fill="#9c7332" /><rect width="100" height="100" x="900.0" y="400.0" fill="#9c7332" /><rect width="100" height="100" x="1000.0" y="400.0" fill="#9c7332" /><rect width="100" height="100" x="1100.0" y="400.0" fill="#956b2c" /><rect width="100" height="100" x="1200.0" y="400.0" fill="#8a6528" /><rect width="100" height="100" x="1300.0" y="400.0" fill="#8a6528" /><rect width="100" height="100" x="1400.0" y="400.0" fill="#805d26" /><rect width="100" height="100" x="1500.0" y="400.0" fill="#956b2c" /><rect width="100" height="100" x="0.0" y="500.0" fill="#8a6528" /><rect width="100" height="100" x="100.0" y="500.0" fill="#956b2c" /><rect width="100" height="100" x="200.0" y="500.0" fill="#956b2c" /><rect width="100" height="100" x="300.0" y="500.0" fill="#8a6528" /><rect width="100" height="100" x="400.0" y="500.0" fill="#805d26" /><rect width="100" height="100" x="500.0" y="500.0" fill="#8a6528" /><rect width="100" height="100" x="600.0" y="500.0" fill="#805d26" /><rect width="100" height="100" x="700.0" y="500.0" fill="#7a5722" /><rect width="100" height="100" x="800.0" y="500.0" fill="#805d26" /><rect width="100" height="100" x="900.0" y="500.0" fill="#8a6528" /><rect width="100" height="100" x="1000.0" y="500.0" fill="#8a6528" /><rect width="100" height="100" x="1100.0" y="500.0" fill="#956b2c" /><rect width="100" height="100" x="1200.0" y="500.0" fill="#956b2c" /><rect width="100" height="100" x="1300.0" y="500.0" fill="#956b2c" /><rect width="100" height="100" x="1400.0" y="500.0" fill="#956b2c" /><rect width="100" height="100" x="1500.0" y="500.0" fill="#8a6528" /><rect width="100" height="100" x="0.0" y="600.0" fill="#805d26" /><rect width="100" height="100" x="100.0" y="600.0" fill="#805d26" /><rect width="100" height="100" x="200.0" y="600.0" fill="#8a6528" /><rect width="100" height="100" x="300.0" y="600.0" fill="#956b2c" /><rect width="100" height="100" x="400.0" y="600.0" fill="#8a6528" /><rect width="100" height="100" x="500.0" y="600.0" fill="#8a6528" /><rect width="100" height="100" x="600.0" y="600.0" fill="#8a6528" /><rect width="100" height="100" x="700.0" y="600.0" fill="#7a5722" /><rect width="100" height="100" x="800.0" y="600.0" fill="#956b2c" /><rect width="100" height="100" x="900.0" y="600.0" fill="#956b2c" /><rect width="100" height="100" x="1000.0" y="600.0" fill="#956b2c" /><rect width="100" height="100" x="1100.0" y="600.0" fill="#8a6528" /><rect width="100" height="100" x="1200.0" y="600.0" fill="#8a6528" /><rect width="100" height="100" x="1300.0" y="600.0" fill="#805d26" /><rect width="100" height="100" x="1400.0" y="600.0" fill="#805d26" /><rect width="100" height="100" x="1500.0" y="600.0" fill="#805d26" /><rect width="100" height="100" x="0.0" y="700.0" fill="#6d4d20" /><rect width="100" height="100" x="100.0" y="700.0" fill="#6d4d20" /><rect width="100" height="100" x="200.0" y="700.0" fill="#725222" /><rect width="100" height="100" x="300.0" y="700.0" fill="#725222" /><rect width="100" height="100" x="400.0" y="700.0" fill="#7a5722" /><rect width="100" height="100" x="500.0" y="700.0" fill="#725222" /><rect width="100" height="100" x="600.0" y="700.0" fill="#6d4d20" /><rect width="100" height="100" x="700.0" y="700.0" fill="#6d4d20" /><rect width="100" height="100" x="800.0" y="700.0" fill="#6d4d20" /><rect width="100" height="100" x="900.0" y="700.0" fill="#6d4d20" /><rect width="100" height="100" x="1000.0" y="700.0" fill="#725222" /><rect width="100" height="100" x="1100.0" y="700.0" fill="#725222" /><rect width="100" height="100" x="1200.0" y="700.0" fill="#725222" /><rect width="100" height="100" x="1300.0" y="700.0" fill="#7a5722" /><rect width="100" height="100" x="1400.0" y="700.0" fill="#725222" /><rect width="100" height="100" x="1500.0" y="700.0" fill="#6d4d20" /><rect width="100" height="100" x="0.0" y="800.0" fill="#956b2c" /><rect width="100" height="100" x="100.0" y="800.0" fill="#9c7332" /><rect width="100" height="100" x="200.0" y="800.0" fill="#9c7332" /><rect width="100" height="100" x="300.0" y="800.0" fill="#956b2c" /><rect width="100" height="100" x="400.0" y="800.0" fill="#8a6528" /><rect width="100" height="100" x="500.0" y="800.0" fill="#8a6528" /><rect width="100" height="100" x="600.0" y="800.0" fill="#9c7332" /><rect width="100" height="100" x="700.0" y="800.0" fill="#9c7332" /><rect width="100" height="100" x="800.0" y="800.0" fill="#9c7332" /><rect width="100" height="100" x="900.0" y="800.0" fill="#956b2c" /><rect width="100" height="100" x="1000.0" y="800.0" fill="#9c7332" /><rect width="100" height="100" x="1100.0" y="800.0" fill="#9c7332" /><rect width="100" height="100" x="1200.0" y="800.0" fill="#9c7332" /><rect width="100" height="100" x="1300.0" y="800.0" fill="#9c7332" /><rect width="100" height="100" x="1400.0" y="800.0" fill="#956b2c" /><rect width="100" height="100" x="1500.0" y="800.0" fill="#805d26" /><rect width="100" height="100" x="0.0" y="900.0" fill="#956b2c" /><rect width="100" height="100" x="100.0" y="900.0" fill="#8a6528" /><rect width="100" height="100" x="200.0" y="900.0" fill="#956b2c" /><rect width="100" height="100" x="300.0" y="900.0" fill="#956b2c" /><rect width="100" height="100" x="400.0" y="900.0" fill="#956b2c" /><rect width="100" height="100" x="500.0" y="900.0" fill="#956b2c" /><rect width="100" height="100" x="600.0" y="900.0" fill="#8a6528" /><rect width="100" height="100" x="700.0" y="900.0" fill="#805d26" /><rect width="100" height="100" x="800.0" y="900.0" fill="#805d26" /><rect width="100" height="100" x="900.0" y="900.0" fill="#805d26" /><rect width="100" height="100" x="1000.0" y="900.0" fill="#8a6528" /><rect width="100" height="100" x="1100.0" y="900.0" fill="#805d26" /><rect width="100" height="100" x="1200.0" y="900.0" fill="#8a6528" /><rect width="100" height="100" x="1300.0" y="900.0" fill="#805d26" /><rect width="100" height="100" x="1400.0" y="900.0" fill="#805d26" /><rect width="100" height="100" x="1500.0" y="900.0" fill="#7a5722" /><rect width="100" height="100" x="0.0" y="1000.0" fill="#9c7332" /><rect width="100" height="100" x="100.0" y="1000.0" fill="#956b2c" /><rect width="100" height="100" x="200.0" y="1000.0" fill="#8a6528" /><rect width="100" height="100" x="300.0" y="1000.0" fill="#8a6528" /><rect width="100" height="100" x="400.0" y="1000.0" fill="#805d26" /><rect width="100" height="100" x="500.0" y="1000.0" fill="#805d26" /><rect width="100" height="100" x="600.0" y="1000.0" fill="#805d26" /><rect width="100" height="100" x="700.0" y="1000.0" fill="#805d26" /><rect width="100" height="100" x="800.0" y="1000.0" fill="#8a6528" /><rect width="100" height="100" x="900.0" y="1000.0" fill="#8a6528" /><rect width="100" height="100" x="1000.0" y="1000.0" fill="#8a6528" /><rect width="100" height="100" x="1100.0" y="1000.0" fill="#8a6528" /><rect width="100" height="100" x="1200.0" y="1000.0" fill="#805d26" /><rect width="100" height="100" x="1300.0" y="1000.0" fill="#805d26" /><rect width="100" height="100" x="1400.0" y="1000.0" fill="#956b2c" /><rect width="100" height="100" x="1500.0" y="1000.0" fill="#805d26" /><rect width="100" height="100" x="0.0" y="1100.0" fill="#6d4d20" /><rect width="100" height="100" x="100.0" y="1100.0" fill="#6d4d20" /><rect width="100" height="100" x="200.0" y="1100.0" fill="#725222" /><rect width="100" height="100" x="300.0" y="1100.0" fill="#7a5722" /><rect width="100" height="100" x="400.0" y="1100.0" fill="#7a5722" /><rect width="100" height="100" x="500.0" y="1100.0" fill="#725222" /><rect width="100" height="100" x="600.0" y="1100.0" fill="#6d4d20" /><rect width="100" height="100" x="700.0" y="1100.0" fill="#6d4d20" /><rect width="100" height="100" x="800.0" y="1100.0" fill="#6d4d20" /><rect width="100" height="100" x="900.0" y="1100.0" fill="#725222" /><rect width="100" height="100" x="1000.0" y="1100.0" fill="#7a5722" /><rect width="100" height="100" x="1100.0" y="1100.0" fill="#725222" /><rect width="100" height="100" x="1200.0" y="1100.0" fill="#725222" /><rect width="100" height="100" x="1300.0" y="1100.0" fill="#6d4d20" /><rect width="100" height="100" x="1400.0" y="1100.0" fill="#6d4d20" /><rect width="100" height="100" x="1500.0" y="1100.0" fill="#6d4d20" /><rect width="100" height="100" x="0.0" y="1200.0" fill="#9c7332" /><rect width="100" height="100" x="100.0" y="1200.0" fill="#956b2c" /><rect width="100" height="100" x="200.0" y="1200.0" fill="#956b2c" /><rect width="100" height="100" x="300.0" y="1200.0" fill="#9c7332" /><rect width="100" height="100" x="400.0" y="1200.0" fill="#9c7332" /><rect width="100" height="100" x="500.0" y="1200.0" fill="#956b2c" /><rect width="100" height="100" x="600.0" y="1200.0" fill="#956b2c" /><rect width="100" height="100" x="700.0" y="1200.0" fill="#805d26" /><rect width="100" height="100" x="800.0" y="1200.0" fill="#9c7332" /><rect width="100" height="100" x="900.0" y="1200.0" fill="#9c7332" /><rect width="100" height="100" x="1000.0" y="1200.0" fill="#9c7332" /><rect width="100" height="100" x="1100.0" y="1200.0" fill="#8a6528" /><rect width="100" height="100" x="1200.0" y="1200.0" fill="#9c7332" /><rect width="100" height="100" x="1300.0" y="1200.0" fill="#956b2c" /><rect width="100" height="100" x="1400.0" y="1200.0" fill="#9c7332" /><rect width="100" height="100" x="1500.0" y="1200.0" fill="#9c7332" /><rect width="100" height="100" x="0.0" y="1300.0" fill="#8a6528" /><rect width="100" height="100" x="100.0" y="1300.0" fill="#8a6528" /><rect width="100" height="100" x="200.0" y="1300.0" fill="#956b2c" /><rect width="100" height="100" x="300.0" y="1300.0" fill="#956b2c" /><rect width="100" height="100" x="400.0" y="1300.0" fill="#805d26" /><rect width="100" height="100" x="500.0" y="1300.0" fill="#805d26" /><rect width="100" height="100" x="600.0" y="1300.0" fill="#8a6528" /><rect width="100" height="100" x="700.0" y="1300.0" fill="#805d26" /><rect width="100" height="100" x="800.0" y="1300.0" fill="#805d26" /><rect width="100" height="100" x="900.0" y="1300.0" fill="#956b2c" /><rect width="100" height="100" x="1000.0" y="1300.0" fill="#956b2c" /><rect width="100" height="100" x="1100.0" y="1300.0" fill="#956b2c" /><rect width="100" height="100" x="1200.0" y="1300.0" fill="#956b2c" /><rect width="100" height="100" x="1300.0" y="1300.0" fill="#8a6528" /><rect width="100" height="100" x="1400.0" y="1300.0" fill="#8a6528" /><rect width="100" height="100" x="1500.0" y="1300.0" fill="#8a6528" /><rect width="100" height="100" x="0.0" y="1400.0" fill="#8a6528" /><rect width="100" height="100" x="100.0" y="1400.0" fill="#805d26" /><rect width="100" height="100" x="200.0" y="1400.0" fill="#805d26" /><rect width="100" height="100" x="300.0" y="1400.0" fill="#8a6528" /><rect width="100" height="100" x="400.0" y="1400.0" fill="#956b2c" /><rect width="100" height="100" x="500.0" y="1400.0" fill="#8a6528" /><rect width="100" height="100" x="600.0" y="1400.0" fill="#805d26" /><rect width="100" height="100" x="700.0" y="1400.0" fill="#7a5722" /><rect width="100" height="100" x="800.0" y="1400.0" fill="#956b2c" /><rect width="100" height="100" x="900.0" y="1400.0" fill="#956b2c" /><rect width="100" height="100" x="1000.0" y="1400.0" fill="#8a6528" /><rect width="100" height="100" x="1100.0" y="1400.0" fill="#805d26" /><rect width="100" height="100" x="1200.0" y="1400.0" fill="#805d26" /><rect width="100" height="100" x="1300.0" y="1400.0" fill="#805d26" /><rect width="100" height="100" x="1400.0" y="1400.0" fill="#805d26" /><rect width="100" height="100" x="1500.0" y="1400.0" fill="#805d26" /><rect width="100" height="100" x="0.0" y="1500.0" fill="#6d4d20" /><rect width="100" height="100" x="100.0" y="1500.0" fill="#725222" /><rect width="100" height="100" x="200.0" y="1500.0" fill="#725222" /><rect width="100" height="100" x="300.0" y="1500.0" fill="#6d4d20" /><rect width="100" height="100" x="400.0" y="1500.0" fill="#6d4d20" /><rect width="100" height="100" x="500.0" y="1500.0" fill="#725222" /><rect width="100" height="100" x="600.0" y="1500.0" fill="#7a5722" /><rect width="100" height="100" x="700.0" y="1500.0" fill="#7a5722" /><rect width="100" height="100" x="800.0" y="1500.0" fill="#7a5722" /><rect width="100" height="100" x="900.0" y="1500.0" fill="#725222" /><rect width="100" height="100" x="1000.0" y="1500.0" fill="#6d4d20" /><rect width="100" height="100" x="1100.0" y="1500.0" fill="#725222" /><rect width="100" height="100" x="1200.0" y="1500.0" fill="#6d4d20" /><rect width="100" height="100" x="1300.0" y="1500.0" fill="#6d4d20" /><rect width="100" height="100" x="1400.0" y="1500.0" fill="#6d4d20" /><rect width="100" height="100" x="1500.0" y="1500.0" fill="#6d4d20" /><rect width="100" height="100" x="1600.0" y="0.0" fill="#956b2c" /><rect width="100" height="100" x="1600.0" y="100.0" fill="#956b2c" /><rect width="100" height="100" x="1600.0" y="200.0" fill="#8a6528" /><rect width="100" height="100" x="1600.0" y="300.0" fill="#7a5722" /><rect width="100" height="100" x="1600.0" y="400.0" fill="#956b2c" /><rect width="100" height="100" x="1600.0" y="500.0" fill="#8a6528" /><rect width="100" height="100" x="1600.0" y="600.0" fill="#805d26" /><rect width="100" height="100" x="1600.0" y="700.0" fill="#6d4d20" /><rect width="100" height="100" x="1600.0" y="800.0" fill="#956b2c" /><rect width="100" height="100" x="1600.0" y="900.0" fill="#956b2c" /><rect width="100" height="100" x="1600.0" y="1000.0" fill="#9c7332" /><rect width="100" height="100" x="1600.0" y="1100.0" fill="#6d4d20" /><rect width="100" height="100" x="1600.0" y="1200.0" fill="#9c7332" /><rect width="100" height="100" x="1600.0" y="1300.0" fill="#8a6528" /><rect width="100" height="100" x="1600.0" y="1400.0" fill="#8a6528" /><rect width="100" height="100" x="1600.0" y="1500.0" fill="#6d4d20" /><rect width="100" height="100" x="0.0" y="1600.0" fill="#956b2c" /><rect width="100" height="100" x="100.0" y="1600.0" fill="#8a6528" /><rect width="100" height="100" x="200.0" y="1600.0" fill="#956b2c" /><rect width="100" height="100" x="300.0" y="1600.0" fill="#9c7332" /><rect width="100" height="100" x="400.0" y="1600.0" fill="#9c7332" /><rect width="100" height="100" x="500.0" y="1600.0" fill="#9c7332" /><rect width="100" height="100" x="600.0" y="1600.0" fill="#9c7332" /><rect width="100" height="100" x="700.0" y="1600.0" fill="#9c7332" /><rect width="100" height="100" x="800.0" y="1600.0" fill="#956b2c" /><rect width="100" height="100" x="900.0" y="1600.0" fill="#9c7332" /><rect width="100" height="100" x="1000.0" y="1600.0" fill="#9c7332" /><rect width="100" height="100" x="1100.0" y="1600.0" fill="#9c7332" /><rect width="100" height="100" x="1200.0" y="1600.0" fill="#9c7332" /><rect width="100" height="100" x="1300.0" y="1600.0" fill="#9c7332" /><rect width="100" height="100" x="1400.0" y="1600.0" fill="#956b2c" /><rect width="100" height="100" x="1500.0" y="1600.0" fill="#7a5722" /><rect width="100" height="100" x="1600.0" y="1600.0" fill="#956b2c" /><rect width="1600.0" height="1600.0" x="66.66666666666666" y="66.66666666666666" fill="#00000072" /><rect width="100" height="100" x="50.0" y="50.0" fill="#4e3010" /><rect width="100" height="100" x="150.0" y="50.0" fill="#4b2212" /><rect width="100" height="100" x="250.0" y="50.0" fill="#4a2212" /><rect width="100" height="100" x="350.0" y="50.0" fill="#4b2312" /><rect width="100" height="100" x="450.0" y="50.0" fill="#4c2b0e" /><rect width="100" height="100" x="550.0" y="50.0" fill="#4c2b0e" /><rect width="100" height="100" x="650.0" y="50.0" fill="#4b3712" /><rect width="100" height="100" x="750.0" y="50.0" fill="#4b3712" /><rect width="100" height="100" x="850.0" y="50.0" fill="#4c3713" /><rect width="100" height="100" x="950.0" y="50.0" fill="#4d2c0e" /><rect width="100" height="100" x="1050.0" y="50.0" fill="#4d2c0e" /><rect width="100" height="100" x="1150.0" y="50.0" fill="#4d2c0e" /><rect width="100" height="100" x="1250.0" y="50.0" fill="#4c2714" /><rect width="100" height="100" x="1350.0" y="50.0" fill="#4d2915" /><rect width="100" height="100" x="1450.0" y="50.0" fill="#43200e" /><rect width="100" height="100" x="1550.0" y="50.0" fill="#4e3010" /><rect width="100" height="100" x="50.0" y="150.0" fill="#43200e" /><rect width="100" height="100" x="150.0" y="150.0" fill="#daac3c" /><rect width="100" height="100" x="250.0" y="150.0" fill="#eacc48" /><rect width="100" height="100" x="350.0" y="150.0" fill="#e2c54f" /><rect width="100" height="100" x="450.0" y="150.0" fill="#ebb940" /><rect width="100" height="100" x="550.0" y="150.0" fill="#e9ba2c" /><rect width="100" height="100" x="650.0" y="150.0" fill="#e7a93a" /><rect width="100" height="100" x="750.0" y="150.0" fill="#d4bf42" /><rect width="100" height="100" x="850.0" y="150.0" fill="#ecc440" /><rect width="100" height="100" x="950.0" y="150.0" fill="#e3c13b" /><rect width="100" height="100" x="1050.0" y="150.0" fill="#eacb57" /><rect width="100" height="100" x="1150.0" y="150.0" fill="#e8c545" /><rect width="100" height="100" x="1250.0" y="150.0" fill="#d7bf41" /><rect width="100" height="100" x="1350.0" y="150.0" fill="#cfba51" /><rect width="100" height="100" x="1450.0" y="150.0" fill="#99784f" /><rect width="100" height="100" x="1550.0" y="150.0" fill="#43200e" /><rect width="100" height="100" x="50.0" y="250.0" fill="#411d0d" /><rect width="100" height="100" x="150.0" y="250.0" fill="#ddba38" /><rect width="100" height="100" x="250.0" y="250.0" fill="#261a04" /><rect width="100" height="100" x="350.0" y="250.0" fill="#ded437" /><rect width="100" height="100" x="450.0" y="250.0" fill="#f2da90" /><rect width="100" height="100" x="550.0" y="250.0" fill="#e8d241" /><rect width="100" height="100" x="650.0" y="250.0" fill="#f1b437" /><rect width="100" height="100" x="750.0" y="250.0" fill="#f1de68" /><rect width="100" height="100" x="850.0" y="250.0" fill="#d4b14b" /><rect width="100" height="100" x="950.0" y="250.0" fill="#dab54b" /><rect width="100" height="100" x="1050.0" y="250.0" fill="#ddab2e" /><rect width="100" height="100" x="1150.0" y="250.0" fill="#d79d3a" /><rect width="100" height="100" x="1250.0" y="250.0" fill="#e4b953" /><rect width="100" height="100" x="1350.0" y="250.0" fill="#c2a23d" /><rect width="100" height="100" x="1450.0" y="250.0" fill="#b6a148" /><rect width="100" height="100" x="1550.0" y="250.0" fill="#411d0d" /><rect width="100" height="100" x="50.0" y="350.0" fill="#4c2714" /><rect width="100" height="100" x="150.0" y="350.0" fill="#ac480a" /><rect width="100" height="100" x="250.0" y="350.0" fill="#ac4d0b" /><rect width="100" height="100" x="350.0" y="350.0" fill="#dabe2f" /><rect width="100" height="100" x="450.0" y="350.0" fill="#edc144" /><rect width="100" height="100" x="550.0" y="350.0" fill="#e2b536" /><rect width="100" height="100" x="650.0" y="350.0" fill="#e2ae26" /><rect width="100" height="100" x="750.0" y="350.0" fill="#f0c73b" /><rect width="100" height="100" x="850.0" y="350.0" fill="#d7b345" /><rect width="100" height="100" x="950.0" y="350.0" fill="#c4b558" /><rect width="100" height="100" x="1050.0" y="350.0" fill="#b3a34c" /><rect width="100" height="100" x="1150.0" y="350.0" fill="#ca9a45" /><rect width="100" height="100" x="1250.0" y="350.0" fill="#c8a23d" /><rect width="100" height="100" x="1350.0" y="350.0" fill="#978641" /><rect width="100" height="100" x="1450.0" y="350.0" fill="#c4b24c" /><rect width="100" height="100" x="1550.0" y="350.0" fill="#4c2714" /><rect width="100" height="100" x="50.0" y="450.0" fill="#4e2f0f" /><rect width="100" height="100" x="150.0" y="450.0" fill="#0f1d03" /><rect width="100" height="100" x="250.0" y="450.0" fill="#12260a" /><rect width="100" height="100" x="350.0" y="450.0" fill="#2a3f06" /><rect width="100" height="100" x="450.0" y="450.0" fill="#eeb425" /><rect width="100" height="100" x="550.0" y="450.0" fill="#f0c030" /><rect width="100" height="100" x="650.0" y="450.0" fill="#f4cc1f" /><rect width="100" height="100" x="750.0" y="450.0" fill="#e5ac21" /><rect width="100" height="100" x="850.0" y="450.0" fill="#b7cc0d" /><rect width="100" height="100" x="950.0" y="450.0" fill="#d2aa3b" /><rect width="100" height="100" x="1050.0" y="450.0" fill="#caa532" /><rect width="100" height="100" x="1150.0" y="450.0" fill="#a78442" /><rect width="100" height="100" x="1250.0" y="450.0" fill="#caa348" /><rect width="100" height="100" x="1350.0" y="450.0" fill="#af8f38" /><rect width="100" height="100" x="1450.0" y="450.0" fill="#a58f43" /><rect width="100" height="100" x="1550.0" y="450.0" fill="#4e2f0f" /><rect width="100" height="100" x="50.0" y="550.0" fill="#4e240f" /><rect width="100" height="100" x="150.0" y="550.0" fill="#061d01" /><rect width="100" height="100" x="250.0" y="550.0" fill="#081a00" /><rect width="100" height="100" x="350.0" y="550.0" fill="#223c0c" /><rect width="100" height="100" x="450.0" y="550.0" fill="#e8b631" /><rect width="100" height="100" x="550.0" y="550.0" fill="#edb928" /><rect width="100" height="100" x="650.0" y="550.0" fill="#dd9c40" /><rect width="100" height="100" x="750.0" y="550.0" fill="#dfab31" /><rect width="100" height="100" x="850.0" y="550.0" fill="#aca50c" /><rect width="100" height="100" x="950.0" y="550.0" fill="#dcb333" /><rect width="100" height="100" x="1050.0" y="550.0" fill="#cfaf40" /><rect width="100" height="100" x="1150.0" y="550.0" fill="#c39e46" /><rect width="100" height="100" x="1250.0" y="550.0" fill="#bd9c4b" /><rect width="100" height="100" x="1350.0" y="550.0" fill="#8f8b44" /><rect width="100" height="100" x="1450.0" y="550.0" fill="#9c712c" /><rect width="100" height="100" x="1550.0" y="550.0" fill="#4e240f" /><rect width="100" height="100" x="50.0" y="650.0" fill="#4e240f" /><rect width="100" height="100" x="150.0" y="650.0" fill="#061103" /><rect width="100" height="100" x="250.0" y="650.0" fill="#042200" /><rect width="100" height="100" x="350.0" y="650.0" fill="#2d3609" /><rect width="100" height="100" x="450.0" y="650.0" fill="#dcb131" /><rect width="100" height="100" x="550.0" y="650.0" fill="#dbaa29" /><rect width="100" height="100" x="650.0" y="650.0" fill="#e9af29" /><rect width="100" height="100" x="750.0" y="650.0" fill="#e2ae34" /><rect width="100" height="100" x="850.0" y="650.0" fill="#32230c" /><rect width="100" height="100" x="950.0" y="650.0" fill="#cfc238" /><rect width="100" height="100" x="1050.0" y="650.0" fill="#d9cb20" /><rect width="100" height="100" x="1150.0" y="650.0" fill="#dcb148" /><rect width="100" height="100" x="1250.0" y="650.0" fill="#849920" /><rect width="100" height="100" x="1350.0" y="650.0" fill="#869619" /><rect width="100" height="100" x="1450.0" y="650.0" fill="#636e06" /><rect width="100" height="100" x="1550.0" y="650.0" fill="#4e240f" /><rect width="100" height="100" x="50.0" y="750.0" fill="#4b3712" /><rect width="100" height="100" x="150.0" y="750.0" fill="#132205" /><rect width="100" height="100" x="250.0" y="750.0" fill="#001500" /><rect width="100" height="100" x="350.0" y="750.0" fill="#1d2704" /><rect width="100" height="100" x="450.0" y="750.0" fill="#e5be35" /><rect width="100" height="100" x="550.0" y="750.0" fill="#d09328" /><rect width="100" height="100" x="650.0" y="750.0" fill="#d9a224" /><rect width="100" height="100" x="750.0" y="750.0" fill="#b3af05" /><rect width="100" height="100" x="850.0" y="750.0" fill="#471703" /><rect width="100" height="100" x="950.0" y="750.0" fill="#2d310c" /><rect width="100" height="100" x="1050.0" y="750.0" fill="#ff6302" /><rect width="100" height="100" x="1150.0" y="750.0" fill="#8c880b" /><rect width="100" height="100" x="1250.0" y="750.0" fill="#476106" /><rect width="100" height="100" x="1350.0" y="750.0" fill="#8db016" /><rect width="100" height="100" x="1450.0" y="750.0" fill="#254104" /><rect width="100" height="100" x="1550.0" y="750.0" fill="#4b3712" /><rect width="100" height="100" x="50.0" y="850.0" fill="#4c3713" /><rect width="100" height="100" x="150.0" y="850.0" fill="#021801" /><rect width="100" height="100" x="250.0" y="850.0" fill="#021a02" /><rect width="100" height="100" x="350.0" y="850.0" fill="#182706" /><rect width="100" height="100" x="450.0" y="850.0" fill="#d21f00" /><rect width="100" height="100" x="550.0" y="850.0" fill="#b02a07" /><rect width="100" height="100" x="650.0" y="850.0" fill="#9e1e05" /><rect width="100" height="100" x="750.0" y="850.0" fill="#bdb00a" /><rect width="100" height="100" x="850.0" y="850.0" fill="#52290d" /><rect width="100" height="100" x="950.0" y="850.0" fill="#2b2606" /><rect width="100" height="100" x="1050.0" y="850.0" fill="#fe0e01" /><rect width="100" height="100" x="1150.0" y="850.0" fill="#617804" /><rect width="100" height="100" x="1250.0" y="850.0" fill="#588d09" /><rect width="100" height="100" x="1350.0" y="850.0" fill="#699c0f" /><rect width="100" height="100" x="1450.0" y="850.0" fill="#2e4f0a" /><rect width="100" height="100" x="1550.0" y="850.0" fill="#4c3713" /><rect width="100" height="100" x="50.0" y="950.0" fill="#4d2d0e" /><rect width="100" height="100" x="150.0" y="950.0" fill="#041201" /><rect width="100" height="100" x="250.0" y="950.0" fill="#0a1e02" /><rect width="100" height="100" x="350.0" y="950.0" fill="#1b3206" /><rect width="100" height="100" x="450.0" y="950.0" fill="#ca6306" /><rect width="100" height="100" x="550.0" y="950.0" fill="#642d06" /><rect width="100" height="100" x="650.0" y="950.0" fill="#9c430b" /><rect width="100" height="100" x="750.0" y="950.0" fill="#988801" /><rect width="100" height="100" x="850.0" y="950.0" fill="#402806" /><rect width="100" height="100" x="950.0" y="950.0" fill="#302104" /><rect width="100" height="100" x="1050.0" y="950.0" fill="#292d12" /><rect width="100" height="100" x="1150.0" y="950.0" fill="#090b00" /><rect width="100" height="100" x="1250.0" y="950.0" fill="#3f4809" /><rect width="100" height="100" x="1350.0" y="950.0" fill="#2c4907" /><rect width="100" height="100" x="1450.0" y="950.0" fill="#27440a" /><rect width="100" height="100" x="1550.0" y="950.0" fill="#4d2d0e" /><rect width="100" height="100" x="50.0" y="1050.0" fill="#4d2d0e" /><rect width="100" height="100" x="150.0" y="1050.0" fill="#081400" /><rect width="100" height="100" x="250.0" y="1050.0" fill="#0b1e02" /><rect width="100" height="100" x="350.0" y="1050.0" fill="#0c2102" /><rect width="100" height="100" x="450.0" y="1050.0" fill="#b76303" /><rect width="100" height="100" x="550.0" y="1050.0" fill="#ba6603" /><rect width="100" height="100" x="650.0" y="1050.0" fill="#b95e03" /><rect width="100" height="100" x="750.0" y="1050.0" fill="#5b630d" /><rect width="100" height="100" x="850.0" y="1050.0" fill="#3b440b" /><rect width="100" height="100" x="950.0" y="1050.0" fill="#1d2307" /><rect width="100" height="100" x="1050.0" y="1050.0" fill="#6d5519" /><rect width="100" height="100" x="1150.0" y="1050.0" fill="#69380d" /><rect width="100" height="100" x="1250.0" y="1050.0" fill="#b46904" /><rect width="100" height="100" x="1350.0" y="1050.0" fill="#8e5b08" /><rect width="100" height="100" x="1450.0" y="1050.0" fill="#152f0c" /><rect width="100" height="100" x="1550.0" y="1050.0" fill="#4d2d0e" /><rect width="100" height="100" x="50.0" y="1150.0" fill="#4d2c0e" /><rect width="100" height="100" x="150.0" y="1150.0" fill="#061502" /><rect width="100" height="100" x="250.0" y="1150.0" fill="#0c2306" /><rect width="100" height="100" x="350.0" y="1150.0" fill="#0b1701" /><rect width="100" height="100" x="450.0" y="1150.0" fill="#9a6809" /><rect width="100" height="100" x="550.0" y="1150.0" fill="#94721b" /><rect width="100" height="100" x="650.0" y="1150.0" fill="#b1963f" /><rect width="100" height="100" x="750.0" y="1150.0" fill="#697400" /><rect width="100" height="100" x="850.0" y="1150.0" fill="#364b10" /><rect width="100" height="100" x="950.0" y="1150.0" fill="#222605" /><rect width="100" height="100" x="1050.0" y="1150.0" fill="#d9d625" /><rect width="100" height="100" x="1150.0" y="1150.0" fill="#c2c208" /><rect width="100" height="100" x="1250.0" y="1150.0" fill="#535703" /><rect width="100" height="100" x="1350.0" y="1150.0" fill="#617d0c" /><rect width="100" height="100" x="1450.0" y="1150.0" fill="#0d2407" /><rect width="100" height="100" x="1550.0" y="1150.0" fill="#4d2c0e" /><rect width="100" height="100" x="50.0" y="1250.0" fill="#4e230e" /><rect width="100" height="100" x="150.0" y="1250.0" fill="#031102" /><rect width="100" height="100" x="250.0" y="1250.0" fill="#163303" /><rect width="100" height="100" x="350.0" y="1250.0" fill="#112406" /><rect width="100" height="100" x="450.0" y="1250.0" fill="#839e01" /><rect width="100" height="100" x="550.0" y="1250.0" fill="#766017" /><rect width="100" height="100" x="650.0" y="1250.0" fill="#151b01" /><rect width="100" height="100" x="750.0" y="1250.0" fill="#4d5a00" /><rect width="100" height="100" x="850.0" y="1250.0" fill="#1b2905" /><rect width="100" height="100" x="950.0" y="1250.0" fill="#010b00" /><rect width="100" height="100" x="1050.0" y="1250.0" fill="#a8bc1d" /><rect width="100" height="100" x="1150.0" y="1250.0" fill="#6b6c20" /><rect width="100" height="100" x="1250.0" y="1250.0" fill="#ab840f" /><rect width="100" height="100" x="1350.0" y="1250.0" fill="#7e4307" /><rect width="100" height="100" x="1450.0" y="1250.0" fill="#3b6207" /><rect width="100" height="100" x="1550.0" y="1250.0" fill="#4e230e" /><rect width="100" height="100" x="50.0" y="1350.0" fill="#4b2412" /><rect width="100" height="100" x="150.0" y="1350.0" fill="#061705" /><rect width="100" height="100" x="250.0" y="1350.0" fill="#051802" /><rect width="100" height="100" x="350.0" y="1350.0" fill="#0a1c02" /><rect width="100" height="100" x="450.0" y="1350.0" fill="#1b0e00" /><rect width="100" height="100" x="550.0" y="1350.0" fill="#4e4f00" /><rect width="100" height="100" x="650.0" y="1350.0" fill="#363e02" /><rect width="100" height="100" x="750.0" y="1350.0" fill="#4a5f00" /><rect width="100" height="100" x="850.0" y="1350.0" fill="#222c07" /><rect width="100" height="100" x="950.0" y="1350.0" fill="#101403" /><rect width="100" height="100" x="1050.0" y="1350.0" fill="#8a6f08" /><rect width="100" height="100" x="1150.0" y="1350.0" fill="#362803" /><rect width="100" height="100" x="1250.0" y="1350.0" fill="#7e2805" /><rect width="100" height="100" x="1350.0" y="1350.0" fill="#5b5a00" /><rect width="100" height="100" x="1450.0" y="1350.0" fill="#141c05" /><rect width="100" height="100" x="1550.0" y="1350.0" fill="#4b2412" /><rect width="100" height="100" x="50.0" y="1450.0" fill="#4c2f13" /><rect width="100" height="100" x="150.0" y="1450.0" fill="#041002" /><rect width="100" height="100" x="250.0" y="1450.0" fill="#041600" /><rect width="100" height="100" x="350.0" y="1450.0" fill="#0a0e00" /><rect width="100" height="100" x="450.0" y="1450.0" fill="#071b00" /><rect width="100" height="100" x="550.0" y="1450.0" fill="#091900" /><rect width="100" height="100" x="650.0" y="1450.0" fill="#575a00" /><rect width="100" height="100" x="750.0" y="1450.0" fill="#454705" /><rect width="100" height="100" x="850.0" y="1450.0" fill="#101c04" /><rect width="100" height="100" x="950.0" y="1450.0" fill="#0a1302" /><rect width="100" height="100" x="1050.0" y="1450.0" fill="#000700" /><rect width="100" height="100" x="1150.0" y="1450.0" fill="#1a2a05" /><rect width="100" height="100" x="1250.0" y="1450.0" fill="#595402" /><rect width="100" height="100" x="1350.0" y="1450.0" fill="#081400" /><rect width="100" height="100" x="1450.0" y="1450.0" fill="#091b01" /><rect width="100" height="100" x="1550.0" y="1450.0" fill="#4c2f13" /><rect width="100" height="100" x="50.0" y="1550.0" fill="#4e3010" /><rect width="100" height="100" x="150.0" y="1550.0" fill="#4b2212" /><rect width="100" height="100" x="250.0" y="1550.0" fill="#4a2212" /><rect width="100" height="100" x="350.0" y="1550.0" fill="#4b2312" /><rect width="100" height="100" x="450.0" y="1550.0" fill="#4c2b0e" /><rect width="100" height="100" x="550.0" y="1550.0" fill="#4c2b0e" /><rect width="100" height="100" x="650.0" y="1550.0" fill="#4b3712" /><rect width="100" height="100" x="750.0" y="1550.0" fill="#4b3712" /><rect width="100" height="100" x="850.0" y="1550.0" fill="#4c3713" /><rect width="100" height="100" x="950.0" y="1550.0" fill="#4d2c0e" /><rect width="100" height="100" x="1050.0" y="1550.0" fill="#4d2c0e" /><rect width="100" height="100" x="1150.0" y="1550.0" fill="#4d2c0e" /><rect width="100" height="100" x="1250.0" y="1550.0" fill="#4c2714" /><rect width="100" height="100" x="1350.0" y="1550.0" fill="#4d2915" /><rect width="100" height="100" x="1450.0" y="1550.0" fill="#43200e" /><rect width="100" height="100" x="1550.0" y="1550.0" fill="#4e3010" /></svg>