<svg width="1700.0" height="1700.0" xmlns="http://www.w3.org/2000/svg"><rect width="100" height="100" x="0.0" y="0.0" fill="#956b2c" /><rect width="100" height="100" x="100.0" y="0.0" fill="#8a6528" /><rect width="100" height="100" x="200.0" y="0.0" fill="#956b2c" /><rect width="100" height="100" x="300.0" y="0.0" fill="#9c7332" /><rect width="100" height="100" x="400.0" y="0.0" fill="#9c7332" /><rect width="100" height="100" x="500.0" y="0.0" fill="#9c7332" /><rect width="100" height="100" x="600.0" y="0.0" fill="#9c7332" /><rect width="100" height="100" x="700.0" y="0.0" fill="#9c7332" /><rect width="100" height="100" x="800.0" y="0.0" fill="#956b2c" /><rect width="100" height="100" x="900.0" y="0.0" fill="#9c7332" /><rect width="100" height="100" x="1000.0" y="0.0" fill="#9c7332" /><rect width="100" height="100" x="1100.0" y="0.0" fill="#9c7332" /><rect width="100" height="100" x="1200.0" y="0.0" fill="#9c7332" /><rect width="100" height="100" x="1300.0" y="0.0" fill="#9c7332" /><rect width="100" height="100" x="1400.0" y="0.0" fill="#956b2c" /><rect width="100" height="100" x="1500.0" y="0.0" fill="#7a5722" /><rect width="100" height="100" x="0.0" y="100.0" fill="#956b2c" /><rect width="100" height="100" x="100.0" y="100.0" fill="#956b2c" /><rect width="100" height="100" x="200.0" y="100.0" fill="#8a6528" /><rect width="100" height="100" x="300.0" y="100.0" fill="#8a6528" /><rect width="100" height="100" x="400.0" y="100.0" fill="#7a5722" /><rect width="100" height="100" x="500.0" y="100.0" fill="#805d26" /><rect width="100" height="100" x="600.0" y="100.0" fill="#8a6528" /><rect width="100" height="100" x="700.0" y="100.0" fill="#956b2c" /><rect width="100" height="100" x="800.0" y="100.0" fill="#956b2c" /><rect width="100" height="100" x="900.0" y="100.0" fill="#956b2c" /><rect width="100" height="100" x="1000.0" y="100.0" fill="#8a6528" /><rect width="100" height="100" x="1100.0" y="100.0" fill="#8a6528" /><rect width="100" height="100" x="1200.0" y="100.0" fill="#956b2c" /><rect width="100" height="100" x="1300.0" y="100.0" fill="#956b2c" /><rect width="100" height="100" x="1400.0" y="100.0" fill="#805d26" /><rect width="100" height="100" x="1500.0" y="100.0" fill="#805d26" /><rect width="100" height="100" x="0.0" y="200.0" fill="#8a6528" /><rect width="100" height="100" x="100.0" y="200.0" fill="#956b2c" /><rect width="100" height="100" x="200.0" y="200.0" fill="#956b2c" /><rect width="100" height="100" x="300.0" y="200.0" fill="#956b2c" /><rect width="100" height="100" x="400.0" y="200.0" fill="#8a6528" /><rect width="100" height="100" x="500.0" y="200.0" fill="#956b2c" /><rect width="100" height="100" x="600.0" y="200.0" fill="#8a6528" /><rect width="100" height="100" x="700.0" y="200.0" fill="#805d26" /><rect width="100" height="100" x="800.0" y="200.0" fill="#805d26" /><rect width="100" height="100" x="900.0" y="200.0" fill="#805d26" /><rect width="100" height="100" x="1000.0" y="200.0" fill="#805d26" /><rect width="100" height="100" x="1100.0" y="200.0" fill="#8a6528" /><rect width="100" height="100" x="1200.0" y="200.0" fill="#8a6528" /><rect width="100" height="100" x="1300.0" y="200.0" fill="#956b2c" /><rect width="100" height="100" x="1400.0" y="200.0" fill="#956b2c" /><rect width="100" height="100" x="1500.0" y="200.0" fill="#7a5722" /><rect width="100" height="100" x="0.0" y="300.0" fill="#7a5722" /><rect width="100" height="100" x="100.0" y="300.0" fill="#725222" /><rect width="100" height="100" x="200.0" y="300.0" fill="#725222" /><rect width="100" height="100" x="300.0" y="300.0" fill="#7a5722" /><rect width="100" height="100" x="400.0" y="300.0" fill="#7a5722" /><rect width="100" height="100" x="500.0" y="300.0" fill="#725222" /><rect width="100" height="100" x="600.0" y="300.0" fill="#6d4d20" /><rect width="100" height="100" x="700.0" y="300.0" fill="#6d4d20" /><rect width="100" height="100" x="800.0" y="300.0" fill="#725222" /><rect width="100" height="100" x="900.0" y="300.0" fill="#725222" /><rect width="100" height="100" x="1000.0" y="300.0" fill="#6d4d20" /><rect width="100" height="100" x="1100.0" y="300.0" fill="#725222" /><rect width="100" height="100" x="1200.0" y="300.0" fill="#6d4d20" /><rect width="100" height="100" x="1300.0" y="300.0" fill="#6d4d20" /><rect width="100" height="100" x="1400.0" y="300.0" fill="#725222" /><rect width="100" height="100" x="1500.0" y="300.0" fill="#6d4d20" /><rect width="100" height="100" x="0.0" y="400.0" fill="#956b2c" /><rect width="100" height="100" x="100.0" y="400.0" fill="#9c7332" /><rect width="100" height="100" x="200.0" y="400.0" fill="#805d26" /><rect width="100" height="100" x="300.0" y="400.0" fill="#9c7332" /><rect width="100" height="100" x="400.0" y="400.0" fill="#9c7332" /><rect width="100" height="100" x="500.0" y="400.0" fill="#9c7332" /><rect width="100" height="100" x="600.0" y="400.0" fill="#9c7332" /><rect width="100" height="100" x="700.0" y="400.0" fill="#805d26" /><rect width="100" height="100" x="800.0" y="400.0" fill="#9c7332" /><rect width="100" height="100" x="900.0" y="400.0" fill="#9c7332" /><rect width="100" height="100" x="1000.0" y="400.0" fill="#9c7332" /><rect width="100" height="100" x="1100.0" y="400.0" fill="#956b2c" /><rect width="100" height="100" x="1200.0" y="400.0" fill="#8a6528" /><rect width="100" height="100" x="1300.0" y="400.0" fill="#8a6528" /><rect width="100" height="100" x="1400.0" y="400.0" fill="#805d26" /><rect width="100" height="100" x="1500.0" y="400.0" fill="#956b2c" /><rect width="100" height="100" x="0.0" y="500.0" fill="#8a6528" /><rect width="100" height="100" x="100.0" y="500.0" fill="#956b2c" /><rect width="100" height="100" x="200.0" y="500.0" fill="#956b2c" /><rect width="100" height="100" x="300.0" y="500.0" fill="#8a6528" /><rect width="100" height="100" x="400.0" y="500.0" fill="#805d26" /><rect width="100" height="100" x="500.0" y="500.0" fill="#8a6528" /><rect width="100" height="100" x="600.0" y="500.0" fill="#805d26" /><rect width="100" height="100" x="700.0" y="500.0" fill="#7a5722" /><rect width="100" height="100" x="800.0" y="500.0" fill="#805d26" /><rect width="100" height="100" x="900.0" y="500.0" fill="#8a6528" /><rect width="100" height="100" x="1000.0" y="500.0" fill="#8a6528" /><rect width="100" height="100" x="1100.0" y="500.0" fill="#956b2c" /><rect width="100" height="100" x="1200.0" y="500.0" fill="#956b2c" /><rect width="100" height="100" x="1300.0" y="500.0" fill="#956b2c" /><rect width="100" height="100" x="1400.0" y="500.0" fill="#956b2c" /><rect width="100" height="100" x="1500.0" y="500.0" fill="#8a6528" /><rect width="100" height="100" x="0.0" y="600.0" fill="#805d26" /><rect width="100" height="100" x="100.0" y="600.0" fill="#805d26" /><rect width="100" height="100" x="200.0" y="600.0" fill="#8a6528" /><rect width="100" height="100" x="300.0" y="600.0" fill="#956b2c" /><rect width="100" height="100" x="400.0" y="600.0" fill="#8a6528" /><rect width="100" height="100" x="500.0" y="600.0" fill="#8a6528" /><rect width="100" height="100" x="600.0" y="600.0" fill="#8a6528" /><rect width="100" height="100" x="700.0" y="600.0" fill="#7a5722" /><rect width="100" height="100" x="800.0" y="600.0" fill="#956b2c" /><rect width="100" height="100" x="900.0" y="600.0" fill="#956b2c" /><rect width="100" height="100" x="1000.0" y="600.0" fill="#956b2c" /><rect width="100" height="100" x="1100.0" y="600.0" fill="#8a6528" /><rect width="100" height="100" x="1200.0" y="600.0" fill="#8a6528" /><rect width="100" height="100" x="1300.0" y="600.0" fill="#805d26" /><rect width="100" height="100" x="1400.0" y="600.0" fill="#805d26" /><rect width="100" height="100" x="1500.0" y="600.0" fill="#805d26" /><rect width="100" height="100" x="0.0" y="700.0" fill="#6d4d20" /><rect width="100" height="100" x="100.0" y="700.0" fill="#6d4d20" /><rect width="100" height="100" x="200.0" y="700.0" fill="#725222" /><rect width="100" height="100" x="300.0" y="700.0" fill="#725222" /><rect width="100" height="100" x="400.0" y="700.0" fill="#7a5722" /><rect width="100" height="100" x="500.0" y="700.0" fill="#725222" /><rect width="100" height="100" x="600.0" y="700.0" fill="#6d4d20" /><rect width="100" height="100" x="700.0" y="700.0" fill="#6d4d20" /><rect width="100" height="100" x="800.0" y="700.0" fill="#6d4d20" /><rect width="100" height="100" x="900.0" y="700.0" fill="#6d4d20" /><rect width="100" height="100" x="1000.0" y="700.0" fill="#725222" /><rect width="100" height="100" x="1100.0" y="700.0" fill="#725222" /><rect width="100" height="100" x="1200.0" y="700.0" fill="#725222" /><rect width="100" height="100" x="1300.0" y="700.0" fill="#7a5722" /><rect width="100" height="100" x="1400.0" y="700.0" fill="#725222" /><rect width="100" height="100" x="1500.0" y="700.0" fill="#6d4d20" /><rect width="100" height="100" x="0.0" y="800.0" fill="#956b2c" /><rect width="100" height="100" x="100.0" y="800.0" fill="#9c7332" /><rect width="100" height="100" x="200.0" y="800.0" fill="#9c7332" /><rect width="100" height="100" x="300.0" y="800.0" fill="#956b2c" /><rect width="100" height="100" x="400.0" y="800.0" fill="#8a6528" /><rect width="100" height="100" x="500.0" y="800.0" fill="#8a6528" /><rect width="100" height="100" x="600.0" y="800.0" fill="#9c7332" /><rect width="100" height="100" x="700.0" y="800.0" fill="#9c7332" /><rect width="100" height="100" x="800.0" y="800.0" fill="#9c7332" /><rect width="100" height="100" x="900.0" y="800.0" fill="#956b2c" /><rect width="100" height="100" x="1000.0" y="800.0" fill="#9c7332" /><rect width="100" height="100" x="1100.0" y="800.0" fill="#9c7332" /><rect width="100" height="100" x="1200.0" y="800.0" fill="#9c7332" /><rect width="100" height="100" x="1300.0" y="800.0" fill="#9c7332" /><rect width="100" height="100" x="1400.0" y="800.0" fill="#956b2c" /><rect width="100" height="100" x="1500.0" y="800.0" fill="#805d26" /><rect width="100" height="100" x="0.0" y="900.0" fill="#956b2c" /><rect width="100" height="100" x="100.0" y="900.0" fill="#8a6528" /><rect width="100" height="100" x="200.0" y="900.0" fill="#956b2c" /><rect width="100" height="100" x="300.0" y="900.0" fill="#956b2c" /><rect width="100" height="100" x="400.0" y="900.0" fill="#956b2c" /><rect width="100" height="100" x="500.0" y="900.0" fill="#956b2c" /><rect width="100" height="100" x="600.0" y="900.0" fill="#8a6528" /><rect width="100" height="100" x="700.0" y="900.0" fill="#805d26" /><rect width="100" height="100" x="800.0" y="900.0" fill="#805d26" /><rect width="100" height="100" x="900.0" y="900.0" fill="#805d26" /><rect width="100" height="100" x="1000.0" y="900.0" fill="#8a6528" /><rect width="100" height="100" x="1100.0" y="900.0" fill="#805d26" /><rect width="100" height="100" x="1200.0" y="900.0" fill="#8a6528" /><rect width="100" height="100" x="1300.0" y="900.0" fill="#805d26" /><rect width="100" height="100" x="1400.0" y="900.0" fill="#805d26" /><rect width="100" height="100" x="1500.0" y="900.0" fill="#7a5722" /><rect width="100" height="100" x="0.0" y="1000.0" fill="#9c7332" /><rect width="100" height="100" x="100.0" y="1000.0" fill="#956b2c" /><rect width="100" height="100" x="200.0" y="1000.0" fill="#8a6528" /><rect width="100" height="100" x="300.0" y="1000.0" fill="#8a6528" /><rect width="100" height="100" x="400.0" y="1000.0" fill="#805d26" /><rect width="100" height="100" x="500.0" y="1000.0" fill="#805d26" /><rect width="100" height="100" x="600.0" y="1000.0" fill="#805d26" /><rect width="100" height="100" x="700.0" y="1000.0" fill="#805d26" /><rect width="100" height="100" x="800.0" y="1000.0" fill="#8a6528" /><rect width="100" height="100" x="900.0" y="1000.0" fill="#8a6528" /><rect width="100" height="100" x="1000.0" y="1000.0" fill="#8a6528" /><rect width="100" height="100" x="1100.0" y="1000.0" fill="#8a6528" /><rect width="100" height="100" x="1200.0" y="1000.0" fill="#805d26" /><rect width="100" height="100" x="1300.0" y="1000.0" fill="#805d26" /><rect width="100" height="100" x="1400.0" y="1000.0" fill="#956b2c" /><rect width="100" height="100" x="1500.0" y="1000.0" fill="#805d26" /><rect width="100" height="100" x="0.0" y="1100.0" fill="#6d4d20" /><rect width="100" height="100" x="100.0" y="1100.0" fill="#6d4d20" /><rect width="100" height="100" x="200.0" y="1100.0" fill="#725222" /><rect width="100" height="100" x="300.0" y="1100.0" fill="#7a5722" /><rect width="100" height="100" x="400.0" y="1100.0" fill="#7a5722" /><rect width="100" height="100" x="500.0" y="1100.0" fill="#725222" /><rect width="100" height="100" x="600.0" y="1100.0" fill="#6d4d20" /><rect width="100" height="100" x="700.0" y="1100.0" fill="#6d4d20" /><rect width="100" height="100" x="800.0" y="1100.0" fill="#6d4d20" /><rect width="100" height="100" x="900.0" y="1100.0" fill="#725222" /><rect width="100" height="100" x="1000.0" y="1100.0" fill="#7a5722" /><rect width="100" height="100" x="1100.0" y="1100.0" fill="#725222" /><rect width="100" height="100" x="1200.0" y="1100.0" fill="#725222" /><rect width="100" height="100" x="1300.0" y="1100.0" fill="#6d4d20" /><rect width="100" height="100" x="1400.0" y="1100.0" fill="#6d4d20" /><rect width="100" height="100" x="1500.0" y="1100.0" fill="#6d4d20" /><rect width="100" height="100" x="0.0" y="1200.0" fill="#9c7332" /><rect width="100" height="100" x="100.0" y="1200.0" fill="#956b2c" /><rect width="100" height="100" x="200.0" y="1200.0" fill="#956b2c" /><rect width="100" height="100" x="300.0" y="1200.0" fill="#9c7332" /><rect width="100" height="100" x="400.0" y="1200.0" fill="#9c7332" /><rect width="100" height="100" x="500.0" y="1200.0" fill="#956b2c" /><rect width="100" height="100" x="600.0" y="1200.0" fill="#956b2c" /><rect width="100" height="100" x="700.0" y="1200.0" fill="#805d26" /><rect width="100" height="100" x="800.0" y="1200.0" fill="#9c7332" /><rect width="100" height="100" x="900.0" y="1200.0" fill="#9c7332" /><rect width="100" height="100" x="1000.0" y="1200.0" fill="#9c7332" /><rect width="100" height="100" x="1100.0" y="1200.0" fill="#8a6528" /><rect width="100" height="100" x="1200.0" y="1200.0" fill="#9c7332" /><rect width="100" height="100" x="1300.0" y="1200.0" fill="#956b2c" /><rect width="100" height="100" x="1400.0" y="1200.0" fill="#9c7332" /><rect width="100" height="100" x="1500.0" y="1200.0" fill="#9c7332" /><rect width="100" height="100" x="0.0" y="1300.0" fill="#8a6528" /><rect width="100" height="100" x="100.0" y="1300.0" fill="#8a6528" /><rect width="100" height="100" x="200.0" y="1300.0" fill="#956b2c" /><rect width="100" height="100" x="300.0" y="1300.0" fill="#956b2c" /><rect width="100" height="100" x="400.0" y="1300.0" fill="#805d26" /><rect width="100" height="100" x="500.0" y="1300.0" fill="#805d26" /><rect width="100" height="100" x="600.0" y="1300.0" fill="#8a6528" /><rect width="100" height="100" x="700.0" y="1300.0" fill="#805d26" /><rect width="100" height="100" x="800.0" y="1300.0" fill="#805d26" /><rect width="100" height="100" x="900.0" y="1300.0" fill="#956b2c" /><rect width="100" height="100" x="1000.0" y="1300.0" fill="#956b2c" /><rect width="100" height="100" x="1100.0" y="1300.0" fill="#956b2c" /><rect width="100" height="100" x="1200.0" y="1300.0" fill="#956b2c" /><rect width="100" height="100" x="1300.0" y="1300.0" fill="#8a6528" /><rect width="100" height="100" x="1400.0" y="1300.0" fill="#8a6528" /><rect width="100" height="100" x="1500.0" y="1300.0" fill="#8a6528" /><rect width="100" height="100" x="0.0" y="1400.0" fill="#8a6528" /><rect width="100" height="100" x="100.0" y="1400.0" fill="#805d26" /><rect width="100" height="100" x="200.0" y="1400.0" fill="#805d26" /><rect width="100" height="100" x="300.0" y="1400.0" fill="#8a6528" /><rect width="100" height="100" x="400.0" y="1400.0" fill="#956b2c" /><rect width="100" height="100" x="500.0" y="1400.0" fill="#8a6528" /><rect width="100" height="100" x="600.0" y="1400.0" fill="#805d26" /><rect width="100" height="100" x="700.0" y="1400.0" fill="#7a5722" /><rect width="100" height="100" x="800.0" y="1400.0" fill="#956b2c" /><rect width="100" height="100" x="900.0" y="1400.0" fill="#956b2c" /><rect width="100" height="100" x="1000.0" y="1400.0" fill="#8a6528" /><rect width="100" height="100" x="1100.0" y="1400.0" fill="#805d26" /><rect width="100" height="100" x="1200.0" y="1400.0" fill="#805d26" /><rect width="100" height="100" x="1300.0" y="1400.0" fill="#805d26" /><rect width="100" height="100" x="1400.0" y="1400.0" fill="#805d26" /><rect width="100" height="100" x="1500.0" y="1400.0" fill="#805d26" /><rect width="100" height="100" x="0.0" y="1500.0" fill="#6d4d20" /><rect width="100" height="100" x="100.0" y="1500.0" fill="#725222" /><rect width="100" height="100" x="200.0" y="1500.0" fill="#725222" /><rect width="100" height="100" x="300.0" y="1500.0" fill="#6d4d20" /><rect width="100" height="100" x="400.0" y="1500.0" fill="#6d4d20" /><rect width="100" height="100" x="500.0" y="1500.0" fill="#725222" /><rect width="100" height="100" x="600.0" y="1500.0" fill="#7a5722" /><rect width="100" height="100" x="700.0" y="1500.0" fill="#7a5722" /><rect width="100" height="100" x="800.0" y="1500.0" fill="#7a5722" /><rect width="100" height="100" x="900.0" y="1500.0" fill="#725222" /><rect width="100" height="100" x="1000.0" y="1500.0" fill="#6d4d20" /><rect width="100" height="100" x="1100.0" y="1500.0" fill="#725222" /><rect width="100" height="100" x="1200.0" y="1500.0" fill="#6d4d20" /><rect width="100" height="100" x="1300.0" y="1500.0" fill="#6d4d20" /><rect width="100" height="100" x="1400.0" y="1500.0" fill="#6d4d20" /><rect width="100" height="100" x="1500.0" y="1500.0" fill="#6d4d20" /><rect width="100" height="100" x="1600.0" y="0.0" fill="#956b2c" /><rect width="100" height="100" x="1600.0" y="100.0" fill="#956b2c" /><rect width="100" height="100" x="1600.0" y="200.0" fill="#8a6528" /><rect width="100" height="100" x="1600.0" y="300.0" fill="#7a5722" /><rect width="100" height="100" x="1600.0" y="400.0" fill="#956b2c" /><rect width="100" height="100" x="1600.0" y="500.0" fill="#8a6528" /><rect width="100" height="100" x="1600.0" y="600.0" fill="#805d26" /><rect width="100" height="100" x="1600.0" y="700.0" fill="#6d4d20" /><rect width="100" height="100" x="1600.0" y="800.0" fill="#956b2c" /><rect width="100" height="100" x="1600.0" y="900.0" fill="#956b2c" /><rect width="100" height="100" x="1600.0" y="1000.0" fill="#9c7332" /><rect width="100" height="100" x="1600.0" y="1100.0" fill="#6d4d20" /><rect width="100" height="100" x="1600.0" y="1200.0" fill="#9c7332" /><rect width="100" height="100" x="1600.0" y="1300.0" fill="#8a6528" /><rect width="100" height="100" x="1600.0" y="1400.0" fill="#8a6528" /><rect width="100" height="100" x="1600.0" y="1500.0" fill="#6d4d20" /><rect width="100" height="100" x="0.0" y="1600.0" fill="#956b2c" /><rect width="100" height="100" x="100.0" y="1600.0" fill="#8a6528" /><rect width="100" height="100" x="200.0" y="1600.0" fill="#956b2c" /><rect width="100" height="100" x="300.0" y="1600.0" fill="#9c7332" /><rect width="100" height="100" x="400.0" y="1600.0" fill="#9c7332" /><rect width="100" height="100" x="500.0" y="1600.0" fill="#9c7332" /><rect width="100" height="100" x="600.0" y="1600.0" fill="#9c7332" /><rect width="100" height="100" x="700.0" y="1600.0" fill="#9c7332" /><rect width="100" height="100" x="800.0" y="1600.0" fill="#956b2c" /><rect width="100" height="100" x="900.0" y="1600.0" fill="#9c7332" /><rect width="100" height="100" x="1000.0" y="1600.0" fill="#9c7332" /><rect width="100" height="100" x="1100.0" y="1600.0" fill="#9c7332" /><rect width="100" height="100" x="1200.0" y="1600.0" fill="#9c7332" /><rect width="100" height="100" x="1300.0" y="1600.0" fill="#9c7332" /><rect width="100" height="100" x="1400.0" y="1600.0" fill="#956b2c" /><rect width="100" height="100" x="1500.0" y="1600.0" fill="#7a5722" /><rect width="100" height="100" x="1600.0" y="1600.0" fill="#956b2c" /><rect width="1600.0" height="1600.0" x="66.66666666666666" y="66.66666666666666" fill="#00000072" /><rect width="100" height="100" x="50.0" y="50.0" fill="#4e3010" /><rect width="100" height="100" x="150.0" y="50.0" fill="#4b2212" /><rect width="100" height="100" x="250.0" y="50.0" fill="#4a2212" /><rect width="100" height="100" x="350.0" y="50.0" fill="#4b2312" /><rect width="100" height="100" x="450.0" y="50.0" fill="#4c2b0e" /><rect width="100" height="100" x="550.0" y="50.0" fill="#4c2b0e" /><rect width="100" height="100" x="650.0" y="50.0" fill="#4b3712" /><rect width="100" height="100" x="750.0" y="50.0" fill="#4b3712" /><rect width="100" height="100" x="850.0" y="50.0" fill="#4c3713" /><rect width="100" height="100" x="950.0" y="50.0" fill="#4d2c0e" /><rect width="100" height="100" x="1050.0" y="50.0" fill="#4d2c0e" /><rect width="100" height="100" x="1150.0" y="50.0" fill="#4d2c0e" /><rect width="100" height="100" x="1250.0" y="50.0" fill="#4c2714" /><rect width="100" height="100" x="1350.0" y="50.0" fill="#4d2915" /><rect width="100" height="100" x="1450.0" y="50.0" fill="#43200e" /><rect width="100" height="100" x="1550.0" y="50.0" fill="#4e3010" /><rect width="100" height="100" x="50.0" y="150.0" fill="#43200e" /><rect width="100" height="100" x="150.0" y="150.0" fill="#fefefe" /><rect width="100" height="100" x="250.0" y="150.0" fill="#e2e2ec" /><rect width="100" height="100" x="350.0" y="150.0" fill="#dce1e7" /><rect width="100" height="100" x="450.0" y="150.0" fill="#eaecdf" /><rect width="100" height="100" x="550.0" y="150.0" fill="#e2e5da" /><rect width="100" height="100" x="650.0" y="150.0" fill="#ebebeb" /><rect width="100" height="100" x="750.0" y="150.0" fill="#daefdc" /><rect width="100" height="100" x="850.0" y="150.0" fill="#cddea7" /><rect width="100" height="100" x="950.0" y="150.0" fill="#dfe6c5" /><rect width="100" height="100" x="1050.0" y="150.0" fill="#e1e4d3" /><rect width="100" height="100" x="1150.0" y="150.0" fill="#dde1c8" /><rect width="100" height="100" x="1250.0" y="150.0" fill="#e1e2e7" /><rect width="100" height="100" x="1350.0" y="150.0" fill="#d2d8ce" /><rect width="100" height="100" x="1450.0" y="150.0" fill="#f0eeef" /><rect width="100" height="100" x="1550.0" y="150.0" fill="#43200e" /><rect width="100" height="100" x="50.0" y="250.0" fill="#411d0d" /><rect width="100" height="100" x="150.0" y="250.0" fill="#e2e3e5" /><rect width="100" height="100" x="250.0" y="250.0" fill="#d8dbe4" /><rect width="100" height="100" x="350.0" y="250.0" fill="#e6f5e0" /><rect width="100" height="100" x="450.0" y="250.0" fill="#e5e9db" /><rect width="100" height="100" x="550.0" y="250.0" fill="#e7e9de" /><rect width="100" height="100" x="650.0" y="250.0" fill="#f3f2f8" /><rect width="100" height="100" x="750.0" y="250.0" fill="#f1f4eb" /><rect width="100" height="100" x="850.0" y="250.0" fill="#cbd6ac" /><rect width="100" height="100" x="950.0" y="250.0" fill="#d5deaf" /><rect width="100" height="100" x="1050.0" y="250.0" fill="#d6cfa5" /><rect width="100" height="100" x="1150.0" y="250.0" fill="#d3d7c0" /><rect width="100" height="100" x="1250.0" y="250.0" fill="#f7facd" /><rect width="100" height="100" x="1350.0" y="250.0" fill="#ede1b9" /><rect width="100" height="100" x="1450.0" y="250.0" fill="#dde0c3" /><rect width="100" height="100" x="1550.0" y="250.0" fill="#411d0d" /><rect width="100" height="100" x="50.0" y="350.0" fill="#4c2714" /><rect width="100" height="100" x="150.0" y="350.0" fill="#c9dbc5" /><rect width="100" height="100" x="250.0" y="350.0" fill="#d8e0cb" /><rect width="100" height="100" x="350.0" y="350.0" fill="#dbe2c3" /><rect width="100" height="100" x="450.0" y="350.0" fill="#e6ecd0" /><rect width="100" height="100" x="550.0" y="350.0" fill="#ebeed9" /><rect width="100" height="100" x="650.0" y="350.0" fill="#f9f9f9" /><rect width="100" height="100" x="750.0" y="350.0" fill="#f4f9e3" /><rect width="100" height="100" x="850.0" y="350.0" fill="#fdffea" /><rect width="100" height="100" x="950.0" y="350.0" fill="#ebf1d7" /><rect width="100" height="100" x="1050.0" y="350.0" fill="#e6e8dd" /><rect width="100" height="100" x="1150.0" y="350.0" fill="#e2e7c9" /><rect width="100" height="100" x="1250.0" y="350.0" fill="#f2f5c6" /><rect width="100" height="100" x="1350.0" y="350.0" fill="#d7ddbb" /><rect width="100" height="100" x="1450.0" y="350.0" fill="#d2d5ca" /><rect width="100" height="100" x="1550.0" y="350.0" fill="#4c2714" /><rect width="100" height="100" x="50.0" y="450.0" fill="#4e2f0f" /><rect width="100" height="100" x="150.0" y="450.0" fill="#83b0b3" /><rect width="100" height="100" x="250.0" y="450.0" fill="#8db4a2" /><rect width="100" height="100" x="350.0" y="450.0" fill="#bac8bb" /><rect width="100" height="100" x="450.0" y="450.0" fill="#c0d3b3" /><rect width="100" height="100" x="550.0" y="450.0" fill="#d3dab8" /><rect width="100" height="100" x="650.0" y="450.0" fill="#dee7b8" /><rect width="100" height="100" x="750.0" y="450.0" fill="#dbe5c3" /><rect width="100" height="100" x="850.0" y="450.0" fill="#e5ecca" /><rect width="100" height="100" x="950.0" y="450.0" fill="#e6ecbc" /><rect width="100" height="100" x="1050.0" y="450.0" fill="#ecf1d1" /><rect width="100" height="100" x="1150.0" y="450.0" fill="#dadbcb" /><rect width="100" height="100" x="1250.0" y="450.0" fill="#d7e7b6" /><rect width="100" height="100" x="1350.0" y="450.0" fill="#d0dfc2" /><rect width="100" height="100" x="1450.0" y="450.0" fill="#c4c2c3" /><rect width="100" height="100" x="1550.0" y="450.0" fill="#4e2f0f" /><rect width="100" height="100" x="50.0" y="550.0" fill="#4e240f" /><rect width="100" height="100" x="150.0" y="550.0" fill="#7d9db2" /><rect width="100" height="100" x="250.0" y="550.0" fill="#92b49c" /><rect width="100" height="100" x="350.0" y="550.0" fill="#a6b8ac" /><rect width="100" height="100" x="450.0" y="550.0" fill="#b9cdb2" /><rect width="100" height="100" x="550.0" y="550.0" fill="#cfd6b4" /><rect width="100" height="100" x="650.0" y="550.0" fill="#d2e1cc" /><rect width="100" height="100" x="750.0" y="550.0" fill="#d4dfc1" /><rect width="100" height="100" x="850.0" y="550.0" fill="#d5e2b7" /><rect width="100" height="100" x="950.0" y="550.0" fill="#dfede0" /><rect width="100" height="100" x="1050.0" y="550.0" fill="#d3deb6" /><rect width="100" height="100" x="1150.0" y="550.0" fill="#ced3cd" /><rect width="100" height="100" x="1250.0" y="550.0" fill="#e9d3a4" /><rect width="100" height="100" x="1350.0" y="550.0" fill="#e0773d" /><rect width="100" height="100" x="1450.0" y="550.0" fill="#d99d5e" /><rect width="100" height="100" x="1550.0" y="550.0" fill="#4e240f" /><rect width="100" height="100" x="50.0" y="650.0" fill="#4e240f" /><rect width="100" height="100" x="150.0" y="650.0" fill="#859ca4" /><rect width="100" height="100" x="250.0" y="650.0" fill="#9eb195" /><rect width="100" height="100" x="350.0" y="650.0" fill="#b5c8ac" /><rect width="100" height="100" x="450.0" y="650.0" fill="#becaa6" /><rect width="100" height="100" x="550.0" y="650.0" fill="#d7dac9" /><rect width="100" height="100" x="650.0" y="650.0" fill="#d3e5a7" /><rect width="100" height="100" x="750.0" y="650.0" fill="#d0dcb8" /><rect width="100" height="100" x="850.0" y="650.0" fill="#d3e0b4" /><rect width="100" height="100" x="950.0" y="650.0" fill="#dbe3b0" /><rect width="100" height="100" x="1050.0" y="650.0" fill="#d8d7b8" /><rect width="100" height="100" x="1150.0" y="650.0" fill="#e5a05f" /><rect width="100" height="100" x="1250.0" y="650.0" fill="#e7865c" /><rect width="100" height="100" x="1350.0" y="650.0" fill="#ddae5e" /><rect width="100" height="100" x="1450.0" y="650.0" fill="#c6c5a7" /><rect width="100" height="100" x="1550.0" y="650.0" fill="#4e240f" /><rect width="100" height="100" x="50.0" y="750.0" fill="#4b3712" /><rect width="100" height="100" x="150.0" y="750.0" fill="#94a2a5" /><rect width="100" height="100" x="250.0" y="750.0" fill="#a9b3aa" /><rect width="100" height="100" x="350.0" y="750.0" fill="#b1bba3" /><rect width="100" height="100" x="450.0" y="750.0" fill="#b1d0a6" /><rect width="100" height="100" x="550.0" y="750.0" fill="#bfc693" /><rect width="100" height="100" x="650.0" y="750.0" fill="#be830f" /><rect width="100" height="100" x="750.0" y="750.0" fill="#dc8e21" /><rect width="100" height="100" x="850.0" y="750.0" fill="#de8831" /><rect width="100" height="100" x="950.0" y="750.0" fill="#e4b22b" /><rect width="100" height="100" x="1050.0" y="750.0" fill="#c3b53a" /><rect width="100" height="100" x="1150.0" y="750.0" fill="#cebf64" /><rect width="100" height="100" x="1250.0" y="750.0" fill="#b9bc61" /><rect width="100" height="100" x="1350.0" y="750.0" fill="#f6f8eb" /><rect width="100" height="100" x="1450.0" y="750.0" fill="#f7fae7" /><rect width="100" height="100" x="1550.0" y="750.0" fill="#4b3712" /><rect width="100" height="100" x="50.0" y="850.0" fill="#4c3713" /><rect width="100" height="100" x="150.0" y="850.0" fill="#e2cb63" /><rect width="100" height="100" x="250.0" y="850.0" fill="#a3651c" /><rect width="100" height="100" x="350.0" y="850.0" fill="#960e36" /><rect width="100" height="100" x="450.0" y="850.0" fill="#d9c48b" /><rect width="100" height="100" x="550.0" y="850.0" fill="#e5ce8a" /><rect width="100" height="100" x="650.0" y="850.0" fill="#d4b83a" /><rect width="100" height="100" x="750.0" y="850.0" fill="#ead093" /><rect width="100" height="100" x="850.0" y="850.0" fill="#ce7521" /><rect width="100" height="100" x="950.0" y="850.0" fill="#d7d082" /><rect width="100" height="100" x="1050.0" y="850.0" fill="#dec642" /><rect width="100" height="100" x="1150.0" y="850.0" fill="#fdffac" /><rect width="100" height="100" x="1250.0" y="850.0" fill="#d1d5d4" /><rect width="100" height="100" x="1350.0" y="850.0" fill="#cadca8" /><rect width="100" height="100" x="1450.0" y="850.0" fill="#e7e27e" /><rect width="100" height="100" x="1550.0" y="850.0" fill="#4c3713" /><rect width="100" height="100" x="50.0" y="950.0" fill="#4d2d0e" /><rect width="100" height="100" x="150.0" y="950.0" fill="#bb9118" /><rect width="100" height="100" x="250.0" y="950.0" fill="#b87411" /><rect width="100" height="100" x="350.0" y="950.0" fill="#802f00" /><rect width="100" height="100" x="450.0" y="950.0" fill="#ecdb73" /><rect width="100" height="100" x="550.0" y="950.0" fill="#e4d09d" /><rect width="100" height="100" x="650.0" y="950.0" fill="#894f1d" /><rect width="100" height="100" x="750.0" y="950.0" fill="#dcc342" /><rect width="100" height="100" x="850.0" y="950.0" fill="#bf5a22" /><rect width="100" height="100" x="950.0" y="950.0" fill="#d1b23d" /><rect width="100" height="100" x="1050.0" y="950.0" fill="#dfd22e" /><rect width="100" height="100" x="1150.0" y="950.0" fill="#6b2e2d" /><rect width="100" height="100" x="1250.0" y="950.0" fill="#ebdd92" /><rect width="100" height="100" x="1350.0" y="950.0" fill="#c5cd94" /><rect width="100" height="100" x="1450.0" y="950.0" fill="#537d3d" /><rect width="100" height="100" x="1550.0" y="950.0" fill="#4d2d0e" /><rect width="100" height="100" x="50.0" y="1050.0" fill="#4d2d0e" /><rect width="100" height="100" x="150.0" y="1050.0" fill="#a57012" /><rect width="100" height="100" x="250.0" y="1050.0" fill="#b08012" /><rect width="100" height="100" x="350.0" y="1050.0" fill="#883e17" /><rect width="100" height="100" x="450.0" y="1050.0" fill="#e9d74d" /><rect width="100" height="100" x="550.0" y="1050.0" fill="#c7b853" /><rect width="100" height="100" x="650.0" y="1050.0" fill="#834300" /><rect width="100" height="100" x="750.0" y="1050.0" fill="#debd4c" /><rect width="100" height="100" x="850.0" y="1050.0" fill="#600e00" /><rect width="100" height="100" x="950.0" y="1050.0" fill="#dabe41" /><rect width="100" height="100" x="1050.0" y="1050.0" fill="#dcc949" /><rect width="100" height="100" x="1150.0" y="1050.0" fill="#988634" /><rect width="100" height="100" x="1250.0" y="1050.0" fill="#adada1" /><rect width="100" height="100" x="1350.0" y="1050.0" fill="#bec99e" /><rect width="100" height="100" x="1450.0" y="1050.0" fill="#b09e48" /><rect width="100" height="100" x="1550.0" y="1050.0" fill="#4d2d0e" /><rect width="100" height="100" x="50.0" y="1150.0" fill="#4d2c0e" /><rect width="100" height="100" x="150.0" y="1150.0" fill="#bea032" /><rect width="100" height="100" x="250.0" y="1150.0" fill="#e8c456" /><rect width="100" height="100" x="350.0" y="1150.0" fill="#e1b44f" /><rect width="100" height="100" x="450.0" y="1150.0" fill="#e99453" /><rect width="100" height="100" x="550.0" y="1150.0" fill="#d8cb65" /><rect width="100" height="100" x="650.0" y="1150.0" fill="#d5b93e" /><rect width="100" height="100" x="750.0" y="1150.0" fill="#ccc168" /><rect width="100" height="100" x="850.0" y="1150.0" fill="#d0b56e" /><rect width="100" height="100" x="950.0" y="1150.0" fill="#d4a442" /><rect width="100" height="100" x="1050.0" y="1150.0" fill="#ae9217" /><rect width="100" height="100" x="1150.0" y="1150.0" fill="#958e84" /><rect width="100" height="100" x="1250.0" y="1150.0" fill="#eeeaba" /><rect width="100" height="100" x="1350.0" y="1150.0" fill="#819a3c" /><rect width="100" height="100" x="1450.0" y="1150.0" fill="#aebf78" /><rect width="100" height="100" x="1550.0" y="1150.0" fill="#4d2c0e" /><rect width="100" height="100" x="50.0" y="1250.0" fill="#4e230e" /><rect width="100" height="100" x="150.0" y="1250.0" fill="#d8ce3b" /><rect width="100" height="100" x="250.0" y="1250.0" fill="#d3bf3a" /><rect width="100" height="100" x="350.0" y="1250.0" fill="#dec544" /><rect width="100" height="100" x="450.0" y="1250.0" fill="#ddc13c" /><rect width="100" height="100" x="550.0" y="1250.0" fill="#dab439" /><rect width="100" height="100" x="650.0" y="1250.0" fill="#d9cc40" /><rect width="100" height="100" x="750.0" y="1250.0" fill="#d8c163" /><rect width="100" height="100" x="850.0" y="1250.0" fill="#ead666" /><rect width="100" height="100" x="950.0" y="1250.0" fill="#e0dd5c" /><rect width="100" height="100" x="1050.0" y="1250.0" fill="#884b0c" /><rect width="100" height="100" x="1150.0" y="1250.0" fill="#d6e4e5" /><rect width="100" height="100" x="1250.0" y="1250.0" fill="#576532" /><rect width="100" height="100" x="1350.0" y="1250.0" fill="#05140d" /><rect width="100" height="100" x="1450.0" y="1250.0" fill="#244510" /><rect width="100" height="100" x="1550.0" y="1250.0" fill="#4e230e" /><rect width="100" height="100" x="50.0" y="1350.0" fill="#4b2412" /><rect width="100" height="100" x="150.0" y="1350.0" fill="#d4cd36" /><rect width="100" height="100" x="250.0" y="1350.0" fill="#e5d537" /><rect width="100" height="100" x="350.0" y="1350.0" fill="#c9bd45" /><rect width="100" height="100" x="450.0" y="1350.0" fill="#ddd15b" /><rect width="100" height="100" x="550.0" y="1350.0" fill="#d1bc0b" /><rect width="100" height="100" x="650.0" y="1350.0" fill="#d2c656" /><rect width="100" height="100" x="750.0" y="1350.0" fill="#d2c43d" /><rect width="100" height="100" x="850.0" y="1350.0" fill="#b7b022" /><rect width="100" height="100" x="950.0" y="1350.0" fill="#e3d5a6" /><rect width="100" height="100" x="1050.0" y="1350.0" fill="#e1e6be" /><rect width="100" height="100" x="1150.0" y="1350.0" fill="#cdc96e" /><rect width="100" height="100" x="1250.0" y="1350.0" fill="#263109" /><rect width="100" height="100" x="1350.0" y="1350.0" fill="#1d2a00" /><rect width="100" height="100" x="1450.0" y="1350.0" fill="#0e1a0e" /><rect width="100" height="100" x="1550.0" y="1350.0" fill="#4b2412" /><rect width="100" height="100" x="50.0" y="1450.0" fill="#4c2f13" /><rect width="100" height="100" x="150.0" y="1450.0" fill="#a67205" /><rect width="100" height="100" x="250.0" y="1450.0" fill="#c2a211" /><rect width="100" height="100" x="350.0" y="1450.0" fill="#c5c94e" /><rect width="100" height="100" x="450.0" y="1450.0" fill="#c3ba5b" /><rect width="100" height="100" x="550.0" y="1450.0" fill="#cab95d" /><rect width="100" height="100" x="650.0" y="1450.0" fill="#c8c053" /><rect width="100" height="100" x="750.0" y="1450.0" fill="#deb74e" /><rect width="100" height="100" x="850.0" y="1450.0" fill="#dac035" /><rect width="100" height="100" x="950.0" y="1450.0" fill="#a49b32" /><rect width="100" height="100" x="1050.0" y="1450.0" fill="#c8ce88" /><rect width="100" height="100" x="1150.0" y="1450.0" fill="#b1a421" /><rect width="100" height="100" x="1250.0" y="1450.0" fill="#708e0c" /><rect width="100" height="100" x="1350.0" y="1450.0" fill="#5b6f0c" /><rect width="100" height="100" x="1450.0" y="1450.0" fill="#a79e35" /><rect width="100" height="100" x="1550.0" y="1450.0" fill="#4c2f13" /><rect width="100" height="100" x="50.0" y="1550.0" fill="#4e3010" /><rect width="100" height="100" x="150.0" y="1550.0" fill="#4b2212" /><rect width="100" height="100" x="250.0" y="1550.0" fill="#4a2212" /><rect width="100" height="100" x="350.0" y="1550.0" fill="#4b2312" /><rect width="100" height="100" x="450.0" y="1550.0" fill="#4c2b0e" /><rect width="100" height="100" x="550.0" y="1550.0" fill="#4c2b0e" /><rect width="100" height="100" x="650.0" y="1550.0" fill="#4b3712" /><rect width="100" height="100" x="750.0" y="1550.0" fill="#4b3712" /><rect width="100" height="100" x="850.0" y="1550.0" fill="#4c3713" /><rect width="100" height="100" x="950.0" y="1550.0" fill="#4d2c0e" /><rect width="100" height="100" x="1050.0" y="1550.0" fill="#4d2c0e" /><rect width="100" height="100" x="1150.0" y="1550.0" fill="#4d2c0e" /><rect width="100" height="100" x="1250.0" y="1550.0" fill="#4c2714" /><rect width="100" height="100" x="1350.0" y="1550.0" fill="#4d2915" /><rect width="100" height="100" x="1450.0" y="1550.0" fill="#43200e" /><rect width="100" height="100" x="1550.0" y="1550.0" fill="#4e3010" /></svg>